<svg width="206" height="58" viewBox="0 0 206 58" fill="none" xmlns="http://www.w3.org/2000/svg">
<path d="M58.664 42C58.3653 42 58.12 41.904 57.928 41.712C57.7573 41.52 57.672 41.296 57.672 41.04V20.656H59.656V41.04C59.656 41.296 59.56 41.52 59.368 41.712C59.176 41.904 58.9413 42 58.664 42ZM51.048 21.424C50.792 21.424 50.568 21.3387 50.376 21.168C50.184 20.9973 50.088 20.7733 50.088 20.496C50.088 20.24 50.184 20.0267 50.376 19.856C50.568 19.6853 50.792 19.6 51.048 19.6H66.28C66.536 19.6 66.76 19.6853 66.952 19.856C67.144 20.0267 67.24 20.2507 67.24 20.528C67.24 20.8053 67.144 21.0293 66.952 21.2C66.76 21.3493 66.536 21.424 66.28 21.424H51.048ZM82.2288 33.808C82.2288 35.4293 81.8768 36.8907 81.1728 38.192C80.4688 39.472 79.5088 40.4853 78.2928 41.232C77.0768 41.9573 75.6901 42.32 74.1328 42.32C72.6181 42.32 71.2421 41.9573 70.0048 41.232C68.7888 40.4853 67.8181 39.472 67.0928 38.192C66.3888 36.8907 66.0368 35.4293 66.0368 33.808C66.0368 32.1653 66.3888 30.704 67.0928 29.424C67.8181 28.144 68.7888 27.1307 70.0048 26.384C71.2421 25.6373 72.6181 25.264 74.1328 25.264C75.6901 25.264 77.0768 25.6373 78.2928 26.384C79.5088 27.1307 80.4688 28.144 81.1728 29.424C81.8768 30.704 82.2288 32.1653 82.2288 33.808ZM80.3088 33.808C80.3088 32.5067 80.0421 31.3547 79.5088 30.352C78.9754 29.328 78.2394 28.528 77.3008 27.952C76.3834 27.3547 75.3274 27.056 74.1328 27.056C72.9808 27.056 71.9354 27.3547 70.9968 27.952C70.0581 28.528 69.3114 29.328 68.7568 30.352C68.2234 31.3547 67.9568 32.5067 67.9568 33.808C67.9568 35.1093 68.2234 36.2613 68.7568 37.264C69.3114 38.2667 70.0581 39.0667 70.9968 39.664C71.9354 40.24 72.9808 40.528 74.1328 40.528C75.3274 40.528 76.3834 40.24 77.3008 39.664C78.2394 39.0667 78.9754 38.2667 79.5088 37.264C80.0421 36.2613 80.3088 35.1093 80.3088 33.808ZM93.1253 25.264C94.0853 25.264 94.9706 25.4347 95.7813 25.776C96.5919 26.096 97.2959 26.5227 97.8933 27.056C98.5119 27.568 98.9919 28.1227 99.3333 28.72C99.6746 29.296 99.8453 29.8507 99.8453 30.384L99.3013 29.616V26.64C99.3013 26.3627 99.3866 26.128 99.5573 25.936C99.7493 25.744 99.9839 25.648 100.261 25.648C100.56 25.648 100.795 25.744 100.965 25.936C101.136 26.128 101.221 26.3627 101.221 26.64V40.496C101.221 42.2027 100.869 43.6427 100.165 44.816C99.4613 45.9893 98.5013 46.8747 97.2853 47.472C96.0906 48.0907 94.7253 48.4 93.1892 48.4C92.4426 48.4 91.6533 48.304 90.8213 48.112C90.0106 47.92 89.3066 47.6747 88.7093 47.376C88.1333 47.0773 87.8133 46.768 87.7493 46.448C87.5786 46.256 87.4933 46.064 87.4933 45.872C87.5146 45.7013 87.6106 45.552 87.7812 45.424C87.9946 45.2747 88.2186 45.2533 88.4533 45.36C88.6879 45.488 89.0399 45.648 89.5093 45.84C89.7226 45.904 90.0106 46 90.3733 46.128C90.7359 46.256 91.1626 46.3627 91.6533 46.448C92.1653 46.5547 92.6986 46.608 93.2533 46.608C95.1733 46.608 96.6559 46.0533 97.7013 44.944C98.7679 43.856 99.3013 42.416 99.3013 40.624V37.552L99.6533 37.648C99.4613 38.416 99.1413 39.088 98.6933 39.664C98.2666 40.24 97.7546 40.7307 97.1573 41.136C96.5599 41.52 95.9093 41.808 95.2053 42C94.5226 42.2133 93.8399 42.32 93.1573 42.32C91.6853 42.32 90.3626 41.9467 89.1893 41.2C88.0159 40.4533 87.0773 39.44 86.3733 38.16C85.6906 36.88 85.3493 35.4187 85.3493 33.776C85.3493 32.1547 85.6906 30.704 86.3733 29.424C87.0773 28.1227 88.0053 27.1093 89.1573 26.384C90.3306 25.6373 91.6533 25.264 93.1253 25.264ZM93.3493 27.056C92.1759 27.056 91.1199 27.3547 90.1813 27.952C89.2639 28.528 88.5386 29.328 88.0052 30.352C87.4933 31.3547 87.2373 32.496 87.2373 33.776C87.2373 35.056 87.4933 36.208 88.0052 37.232C88.5386 38.256 89.2639 39.0667 90.1813 39.664C91.1199 40.24 92.1759 40.528 93.3493 40.528C94.5226 40.528 95.5679 40.24 96.4853 39.664C97.4026 39.088 98.1279 38.2987 98.6613 37.296C99.1946 36.272 99.4613 35.0987 99.4613 33.776C99.4613 32.4533 99.1946 31.2907 98.6613 30.288C98.1279 29.264 97.4026 28.4747 96.4853 27.92C95.5679 27.344 94.5226 27.056 93.3493 27.056ZM113.045 42.32C111.402 42.32 109.952 41.968 108.693 41.264C107.434 40.56 106.453 39.5787 105.749 38.32C105.045 37.0613 104.693 35.5893 104.693 33.904C104.693 32.0907 105.045 30.544 105.749 29.264C106.474 27.984 107.402 27.0027 108.533 26.32C109.685 25.616 110.901 25.264 112.181 25.264C113.12 25.264 114.026 25.4347 114.901 25.776C115.797 26.096 116.586 26.5867 117.269 27.248C117.973 27.888 118.528 28.6773 118.933 29.616C119.36 30.5547 119.594 31.6427 119.637 32.88C119.616 33.136 119.509 33.36 119.317 33.552C119.125 33.7227 118.901 33.808 118.645 33.808H105.813L105.429 32.08H118.037L117.621 32.464V31.824C117.536 30.8213 117.216 29.968 116.661 29.264C116.106 28.56 115.434 28.0267 114.645 27.664C113.856 27.3013 113.034 27.12 112.181 27.12C111.541 27.12 110.88 27.248 110.197 27.504C109.536 27.76 108.928 28.1653 108.373 28.72C107.84 29.2533 107.402 29.9467 107.061 30.8C106.72 31.632 106.549 32.624 106.549 33.776C106.549 35.0347 106.805 36.176 107.317 37.2C107.829 38.224 108.565 39.0347 109.525 39.632C110.506 40.2293 111.669 40.528 113.013 40.528C113.76 40.528 114.432 40.4213 115.029 40.208C115.626 39.9947 116.149 39.7173 116.597 39.376C117.045 39.0133 117.418 38.64 117.717 38.256C117.952 38.064 118.186 37.968 118.421 37.968C118.634 37.968 118.816 38.0533 118.965 38.224C119.136 38.3947 119.221 38.5867 119.221 38.8C119.221 39.056 119.114 39.28 118.901 39.472C118.261 40.24 117.429 40.912 116.405 41.488C115.381 42.0427 114.261 42.32 113.045 42.32ZM122.691 25.712H130.147C130.403 25.712 130.616 25.808 130.787 26C130.957 26.1707 131.043 26.384 131.043 26.64C131.043 26.8747 130.957 27.0773 130.787 27.248C130.616 27.4187 130.403 27.504 130.147 27.504H122.691C122.435 27.504 122.211 27.4187 122.019 27.248C121.848 27.056 121.763 26.8427 121.763 26.608C121.763 26.352 121.848 26.1387 122.019 25.968C122.211 25.7973 122.435 25.712 122.691 25.712ZM125.987 21.2C126.264 21.2 126.488 21.296 126.659 21.488C126.851 21.68 126.947 21.904 126.947 22.16V38.224C126.947 38.8213 127.021 39.2693 127.171 39.568C127.341 39.8667 127.555 40.0693 127.811 40.176C128.067 40.2613 128.323 40.304 128.579 40.304C128.749 40.304 128.899 40.2827 129.027 40.24C129.176 40.176 129.336 40.144 129.507 40.144C129.699 40.144 129.859 40.2187 129.987 40.368C130.136 40.5173 130.211 40.7093 130.211 40.944C130.211 41.2427 130.04 41.4987 129.699 41.712C129.357 41.904 128.952 42 128.483 42C128.291 42 128.003 41.9893 127.619 41.968C127.235 41.9253 126.84 41.808 126.435 41.616C126.029 41.4027 125.688 41.04 125.411 40.528C125.155 40.016 125.027 39.28 125.027 38.32V22.16C125.027 21.904 125.112 21.68 125.283 21.488C125.475 21.296 125.709 21.2 125.987 21.2ZM142.047 25.52C143.391 25.52 144.479 25.808 145.311 26.384C146.143 26.96 146.751 27.7387 147.135 28.72C147.54 29.7013 147.743 30.7893 147.743 31.984V41.04C147.743 41.296 147.647 41.52 147.455 41.712C147.263 41.904 147.039 42 146.783 42C146.484 42 146.249 41.904 146.079 41.712C145.908 41.52 145.823 41.296 145.823 41.04V31.984C145.823 31.1093 145.684 30.32 145.407 29.616C145.151 28.912 144.724 28.3573 144.127 27.952C143.529 27.5253 142.729 27.312 141.727 27.312C140.831 27.312 139.977 27.5253 139.167 27.952C138.377 28.3573 137.737 28.912 137.247 29.616C136.756 30.32 136.511 31.1093 136.511 31.984V41.04C136.511 41.296 136.415 41.52 136.223 41.712C136.031 41.904 135.807 42 135.551 42C135.252 42 135.017 41.904 134.847 41.712C134.676 41.52 134.591 41.296 134.591 41.04V19.28C134.591 19.024 134.676 18.8 134.847 18.608C135.039 18.416 135.273 18.32 135.551 18.32C135.828 18.32 136.052 18.416 136.223 18.608C136.415 18.8 136.511 19.024 136.511 19.28V29.648L135.775 30.768C135.817 30.1067 136.02 29.4667 136.383 28.848C136.767 28.208 137.257 27.6427 137.855 27.152C138.452 26.64 139.113 26.2453 139.839 25.968C140.564 25.6693 141.3 25.52 142.047 25.52ZM160.17 42.32C158.527 42.32 157.077 41.968 155.818 41.264C154.559 40.56 153.578 39.5787 152.874 38.32C152.17 37.0613 151.818 35.5893 151.818 33.904C151.818 32.0907 152.17 30.544 152.874 29.264C153.599 27.984 154.527 27.0027 155.658 26.32C156.81 25.616 158.026 25.264 159.306 25.264C160.245 25.264 161.151 25.4347 162.026 25.776C162.922 26.096 163.711 26.5867 164.394 27.248C165.098 27.888 165.653 28.6773 166.058 29.616C166.485 30.5547 166.719 31.6427 166.762 32.88C166.741 33.136 166.634 33.36 166.442 33.552C166.25 33.7227 166.026 33.808 165.77 33.808H152.938L152.554 32.08H165.162L164.746 32.464V31.824C164.661 30.8213 164.341 29.968 163.786 29.264C163.231 28.56 162.559 28.0267 161.77 27.664C160.981 27.3013 160.159 27.12 159.306 27.12C158.666 27.12 158.005 27.248 157.322 27.504C156.661 27.76 156.053 28.1653 155.498 28.72C154.965 29.2533 154.527 29.9467 154.186 30.8C153.845 31.632 153.674 32.624 153.674 33.776C153.674 35.0347 153.93 36.176 154.442 37.2C154.954 38.224 155.69 39.0347 156.65 39.632C157.631 40.2293 158.794 40.528 160.138 40.528C160.885 40.528 161.557 40.4213 162.154 40.208C162.751 39.9947 163.274 39.7173 163.722 39.376C164.17 39.0133 164.543 38.64 164.842 38.256C165.077 38.064 165.311 37.968 165.546 37.968C165.759 37.968 165.941 38.0533 166.09 38.224C166.261 38.3947 166.346 38.5867 166.346 38.8C166.346 39.056 166.239 39.28 166.026 39.472C165.386 40.24 164.554 40.912 163.53 41.488C162.506 42.0427 161.386 42.32 160.17 42.32ZM171.832 42C171.533 42 171.298 41.904 171.128 41.712C170.957 41.52 170.872 41.296 170.872 41.04V26.704C170.872 26.448 170.957 26.224 171.128 26.032C171.32 25.84 171.554 25.744 171.832 25.744C172.109 25.744 172.333 25.84 172.504 26.032C172.696 26.224 172.792 26.448 172.792 26.704V31.504L172.312 31.6C172.376 30.8533 172.557 30.1173 172.856 29.392C173.176 28.6453 173.602 27.9627 174.136 27.344C174.669 26.7253 175.298 26.224 176.024 25.84C176.77 25.456 177.602 25.264 178.52 25.264C178.904 25.264 179.277 25.3493 179.64 25.52C180.002 25.6693 180.184 25.9253 180.184 26.288C180.184 26.608 180.098 26.8533 179.928 27.024C179.757 27.1947 179.554 27.28 179.32 27.28C179.128 27.28 178.914 27.2267 178.68 27.12C178.466 27.0133 178.178 26.96 177.816 26.96C177.218 26.96 176.621 27.1413 176.024 27.504C175.426 27.8453 174.882 28.3147 174.392 28.912C173.901 29.5093 173.506 30.1813 173.208 30.928C172.93 31.6533 172.792 32.3893 172.792 33.136V41.04C172.792 41.296 172.696 41.52 172.504 41.712C172.312 41.904 172.088 42 171.832 42ZM185.296 41.04C185.296 41.296 185.2 41.52 185.008 41.712C184.816 41.904 184.592 42 184.336 42C184.059 42 183.824 41.904 183.632 41.712C183.462 41.52 183.376 41.296 183.376 41.04V19.28C183.376 19.024 183.472 18.8 183.664 18.608C183.856 18.416 184.08 18.32 184.336 18.32C184.614 18.32 184.838 18.416 185.008 18.608C185.2 18.8 185.296 19.024 185.296 19.28V41.04ZM202.283 25.36C202.56 25.36 202.784 25.456 202.955 25.648C203.147 25.84 203.243 26.064 203.243 26.32V40.432C203.243 42.16 202.901 43.6107 202.219 44.784C201.536 45.9787 200.619 46.8747 199.467 47.472C198.315 48.0907 197.003 48.4 195.531 48.4C194.613 48.4 193.76 48.2933 192.971 48.08C192.203 47.888 191.573 47.632 191.083 47.312C190.827 47.1627 190.635 46.9813 190.507 46.768C190.379 46.5547 190.368 46.3307 190.475 46.096C190.581 45.7973 190.741 45.5947 190.955 45.488C191.189 45.4027 191.424 45.4133 191.659 45.52C192.021 45.712 192.544 45.9467 193.227 46.224C193.909 46.5013 194.688 46.64 195.562 46.64C196.736 46.64 197.749 46.3947 198.603 45.904C199.477 45.4133 200.149 44.6987 200.619 43.76C201.088 42.8427 201.323 41.744 201.323 40.464V38.16L201.547 38.928C201.227 39.5893 200.768 40.176 200.171 40.688C199.595 41.2 198.923 41.6053 198.155 41.904C197.408 42.1813 196.608 42.32 195.755 42.32C194.475 42.32 193.408 42.064 192.555 41.552C191.723 41.0187 191.104 40.2933 190.699 39.376C190.293 38.4587 190.091 37.3813 190.091 36.144V26.32C190.091 26.064 190.176 25.84 190.347 25.648C190.517 25.456 190.752 25.36 191.051 25.36C191.328 25.36 191.552 25.456 191.723 25.648C191.915 25.84 192.011 26.064 192.011 26.32V35.856C192.011 37.3493 192.331 38.5013 192.971 39.312C193.632 40.1227 194.699 40.528 196.171 40.528C197.088 40.528 197.931 40.3147 198.699 39.888C199.467 39.44 200.096 38.864 200.587 38.16C201.077 37.4347 201.323 36.6667 201.323 35.856V26.32C201.323 26.064 201.408 25.84 201.579 25.648C201.771 25.456 202.005 25.36 202.283 25.36Z" fill="#333333"/>
<g filter="url(#filter0_d_286_397)">
<path d="M4 21.2381C4 20.9437 4.24416 20.7135 4.53649 20.748C7.26971 21.0699 19.5172 22.8211 19.5172 28.3525C19.5172 33.8234 19.5172 43.7314 19.5172 46.0548C19.5172 46.3309 19.2934 46.5517 19.0172 46.5517H4.5C4.22386 46.5517 4 46.3279 4 46.0517V21.2381Z" fill="#90C3B1"/>
<path d="M41.9312 12.6345C41.9312 12.334 41.6767 12.1023 41.3799 12.1491C38.6177 12.5843 26.4139 14.9241 26.4139 22.2861C26.4139 29.7244 26.4139 43.3144 26.4139 46.0604C26.4139 46.3365 26.6378 46.5517 26.9139 46.5517H41.4312C41.7073 46.5517 41.9312 46.3279 41.9312 46.0517V12.6345Z" fill="#FFD166"/>
<path d="M19.5172 13.7931C19.5172 17.602 16.4295 20.6896 12.6207 20.6896C8.81181 20.6896 5.72412 17.602 5.72412 13.7931C5.72412 9.98424 8.81181 6.89655 12.6207 6.89655C16.4295 6.89655 19.5172 9.98424 19.5172 13.7931Z" fill="#90C3B1"/>
<path d="M36.7584 6.89655C36.7584 10.7054 33.6707 13.7931 29.8619 13.7931C26.053 13.7931 22.9653 10.7054 22.9653 6.89655C22.9653 3.08769 26.053 0 29.8619 0C33.6707 0 36.7584 3.08769 36.7584 6.89655Z" fill="#FFD166"/>
<path d="M17.8223 31.1729C17.9833 31.0744 18.1867 31.1143 18.3318 31.235C21.3911 33.7816 24.5964 33.7663 27.5985 31.2379C27.7438 31.1156 27.9485 31.0748 28.1103 31.174C30.9197 32.8975 29.5223 42.1701 29.4586 49.5014C29.4562 49.7775 29.2325 50 28.9564 50H16.9747C16.6985 50 16.4749 49.7775 16.4725 49.5014C16.4085 42.1684 15.0103 32.8933 17.8223 31.1729Z" fill="#D7C3E2"/>
<path d="M28.1378 25.8621C28.1378 23.0054 25.822 20.6897 22.9654 20.6897C20.1087 20.6897 17.793 23.0054 17.793 25.8621C17.793 28.7187 20.1087 31.0345 22.9654 31.0345C25.822 31.0345 28.1378 28.7187 28.1378 25.8621Z" fill="#D7C3E2"/>
</g>
<defs>
<filter id="filter0_d_286_397" x="0" y="0" width="45.9312" height="58" filterUnits="userSpaceOnUse" color-interpolation-filters="sRGB">
<feFlood flood-opacity="0" result="BackgroundImageFix"/>
<feColorMatrix in="SourceAlpha" type="matrix" values="0 0 0 0 0 0 0 0 0 0 0 0 0 0 0 0 0 0 127 0" result="hardAlpha"/>
<feOffset dy="4"/>
<feGaussianBlur stdDeviation="2"/>
<feComposite in2="hardAlpha" operator="out"/>
<feColorMatrix type="matrix" values="0 0 0 0 0 0 0 0 0 0 0 0 0 0 0 0 0 0 0.25 0"/>
<feBlend mode="normal" in2="BackgroundImageFix" result="effect1_dropShadow_286_397"/>
<feBlend mode="normal" in="SourceGraphic" in2="effect1_dropShadow_286_397" result="shape"/>
</filter>
</defs>
</svg>
