<svg width="46" height="58" viewBox="0 0 46 58" fill="none" xmlns="http://www.w3.org/2000/svg">
<g filter="url(#filter0_d_285_340)">
<path d="M4 21.2381C4 20.9438 4.24416 20.7136 4.53649 20.748C7.26971 21.0699 19.5172 22.8211 19.5172 28.3525C19.5172 33.8234 19.5172 43.7314 19.5172 46.0548C19.5172 46.3309 19.2934 46.5517 19.0172 46.5517H4.5C4.22386 46.5517 4 46.3279 4 46.0517V21.2381Z" fill="#90C3B1"/>
<path d="M41.9312 12.6345C41.9312 12.334 41.6767 12.1023 41.3799 12.1491C38.6177 12.5843 26.4139 14.9241 26.4139 22.2861C26.4139 29.7244 26.4139 43.3144 26.4139 46.0604C26.4139 46.3365 26.6378 46.5517 26.9139 46.5517H41.4312C41.7073 46.5517 41.9312 46.3279 41.9312 46.0517V12.6345Z" fill="#FFD166"/>
<path d="M19.5172 13.7931C19.5172 17.602 16.4295 20.6896 12.6207 20.6896C8.81181 20.6896 5.72412 17.602 5.72412 13.7931C5.72412 9.98424 8.81181 6.89655 12.6207 6.89655C16.4295 6.89655 19.5172 9.98424 19.5172 13.7931Z" fill="#90C3B1"/>
<path d="M36.7584 6.89655C36.7584 10.7054 33.6707 13.7931 29.8619 13.7931C26.053 13.7931 22.9653 10.7054 22.9653 6.89655C22.9653 3.08769 26.053 0 29.8619 0C33.6707 0 36.7584 3.08769 36.7584 6.89655Z" fill="#FFD166"/>
<path d="M17.8223 31.1729C17.9833 31.0744 18.1867 31.1143 18.3318 31.235C21.3911 33.7816 24.5964 33.7663 27.5985 31.2379C27.7438 31.1156 27.9485 31.0748 28.1103 31.174C30.9197 32.8975 29.5223 42.1701 29.4586 49.5014C29.4562 49.7775 29.2325 50 28.9564 50H16.9747C16.6985 50 16.4749 49.7775 16.4725 49.5014C16.4085 42.1684 15.0103 32.8933 17.8223 31.1729Z" fill="#D7C3E2"/>
<path d="M28.1378 25.8621C28.1378 23.0054 25.822 20.6897 22.9654 20.6897C20.1087 20.6897 17.793 23.0054 17.793 25.8621C17.793 28.7187 20.1087 31.0345 22.9654 31.0345C25.822 31.0345 28.1378 28.7187 28.1378 25.8621Z" fill="#D7C3E2"/>
</g>
<defs>
<filter id="filter0_d_285_340" x="0" y="0" width="45.9312" height="58" filterUnits="userSpaceOnUse" color-interpolation-filters="sRGB">
<feFlood flood-opacity="0" result="BackgroundImageFix"/>
<feColorMatrix in="SourceAlpha" type="matrix" values="0 0 0 0 0 0 0 0 0 0 0 0 0 0 0 0 0 0 127 0" result="hardAlpha"/>
<feOffset dy="4"/>
<feGaussianBlur stdDeviation="2"/>
<feComposite in2="hardAlpha" operator="out"/>
<feColorMatrix type="matrix" values="0 0 0 0 0 0 0 0 0 0 0 0 0 0 0 0 0 0 0.25 0"/>
<feBlend mode="normal" in2="BackgroundImageFix" result="effect1_dropShadow_285_340"/>
<feBlend mode="normal" in="SourceGraphic" in2="effect1_dropShadow_285_340" result="shape"/>
</filter>
</defs>
</svg>
